<svg version="1.0" xmlns="http://www.w3.org/2000/svg"
     width="470px" height="450px" viewBox="0 0 80 750"
     preserveAspectRatio="xMidYMid meet">
    <g fill="#f9f9f9" transform="translate(-300.00000,551.500000) scale(0.100000,-0.10000)"
       stroke="none">
        <path d="M5011 4793 c-27 -150 -102 -337 -187 -470 -45 -71 -166 -196 -239
-248 -158 -112 -284 -150 -617 -185 -308 -32 -421 -59 -573 -136 -206 -105
-397 -312 -520 -564 -162 -334 -191 -724 -75 -1005 56 -134 137 -240 334 -443
233 -239 298 -334 348 -509 21 -70 23 -99 22 -273 0 -177 -3 -204 -27 -292
-59 -221 -151 -391 -279 -513 -77 -74 -164 -127 -236 -144 -22 -5 383 -9 1016
-10 l1052 -1 0 2430 c0 1337 -1 2430 -3 2430 -2 0 -9 -30 -16 -67z"/>
        <path d="M1438 638 c-98 -9 -231 -59 -341 -128 -46 -29 -162 -116 -258 -192
-280 -224 -358 -263 -529 -262 -112 0 -179 18 -262 71 -21 12 -40 23 -43 23
-3 0 -5 -34 -5 -75 l0 -75 1388 1 c1224 0 1381 2 1334 15 -115 30 -226 97
-475 283 -95 71 -204 149 -244 174 -208 133 -377 182 -565 165z"/>
    </g>
</svg>